<svg xmlns="http://www.w3.org/2000/svg" width="512" height="512">
	<path fill="#F34631" class="legs" d="M195.559 289.847c.06 2.671.474 5.242.946 7.864.337 1.877.844 3.982.701 5.89-3.943 4.31-6.161 9.796-5.926 15.661.277 6.903 5.603 12.43 10.42 16.807 2.723 2.473 5.919 4.915 9.159 6.668-15.544 13.956-33.122 25.658-52.32 33.973-7.998 3.464-18.802 7.34-27.414 3.756-4.644-1.934-8.15-5.3-10.09-9.952-2.369-5.676-1.719-12.587.651-18.162 1.973-4.641 4.942-8.806 8.217-12.613 8.4-9.764 18.976-18.076 28.95-26.162 3.796-3.078 8.134-7.318 12.69-9.16l24.016-14.57ZM316.645 290.365l23.721 13.513c5.125 2.939 9.862 7.067 14.45 10.784l14.962 12.723c5.59 4.885 11.528 10.101 16.079 15.995 2.665 3.45 4.665 7.298 5.807 11.51 1.64 6.05 1.205 12.539-1.945 18.022-2.417 4.206-6.37 7.043-11.03 8.29-8.242 2.205-16.897-.84-24.498-3.908-5.906-2.383-11.628-5.114-17.123-8.338-7.407-4.346-14.193-9.064-21.037-14.246-4.94-3.74-9.839-7.574-14.134-12.063 3.182-1.819 6.121-3.83 8.876-6.255 4.941-4.348 9.82-10.245 10.2-17.122.342-6.23-1.696-10.953-5.829-15.504.985-4.603 1.592-8.682 1.501-13.4Z"/>
	<path fill="#fff" class="outer-hull" d="M234.976 139.047c.029.34.06.575-.053.906-.692 2.015-2.43 4.158-3.515 6.051l-4.464 8.746a355.925 355.925 0 0 0-17.111 44.29c-3.094 9.965-5.568 20.225-7.746 30.43-3.045 14.257-5.439 28.816-6.325 43.384l-.203 16.993-24.016 14.57c-1.814-1.956-3.705-3.724-5.392-5.818-4.69-5.819-7.98-12.873-10.378-19.915-1.534-4.507-2.943-9.41-3.634-14.117-2.106-14.332-.73-29.597 2.481-43.653 1.66-7.268 3.743-14.323 7.044-21.03 8.096-16.447 20.155-29.302 34.716-40.235 11.745-8.818 24.667-15.884 38.596-20.602ZM316.645 290.365c-.377-1.432-.148-3.45-.144-4.94l-.136-8.344-1.614-18.15-3.76-23.68-4.108-16.486c-3.616-14.02-7.858-27.793-13.084-41.302l-6.466-15.692-4.63-10.64-4.034-7.918c-.408-.749-1.714-2.554-1.828-3.297-.034-.22.092-.436.138-.653 8.62 2.881 17.14 6.458 25.01 11.02 6.03 3.495 11.631 7.57 17.097 11.882 12.71 10.026 23.682 22.168 30.979 36.72 4.895 9.763 7.833 20.671 9.4 31.448 2.332 16.04 1.933 32.562-3.28 48.042-3.132 9.3-8.13 19.156-15.819 25.503l-23.72-13.513Z"/>
	<path fill="#17AACF" class="inner-hull" d="m234.976 139.047.255-.25c1.242-1.273 2.194-3.746 3.097-5.326 3.563-6.23 8.827-11.896 16.475-12.26 4.742-.228 9.346 1.89 12.788 5.061 2.816 2.594 4.928 6.158 6.844 9.435.472.808 1.165 2.55 1.792 3.168.201.198.501.258.752.388-.046.217-.172.433-.138.653.114.743 1.42 2.548 1.828 3.297l4.034 7.917 4.63 10.64 6.466 15.693c5.226 13.51 9.468 27.281 13.084 41.302l4.108 16.485 3.76 23.68 1.614 18.151.136 8.344c-.004 1.49-.233 3.508.144 4.94.091 4.72-.516 8.798-1.5 13.401 4.132 4.55 6.17 9.275 5.827 15.504-.379 6.877-5.258 12.774-10.2 17.122-2.754 2.425-5.693 4.436-8.875 6.255-9.03 6.122-19.74 11.46-30.59 13.225-.413 2.667-1.346 5.344-2.26 7.878-3.062 8.504-7.772 15.976-13.408 23.002-5.77-7.462-10.186-15.848-13.182-24.792-.593-1.772-1.344-3.552-1.59-5.413l-.03-.264c-6.532-1.504-12.932-3.654-18.87-6.8-3.833-2.03-7.409-4.489-11.108-6.746-3.24-1.753-6.436-4.195-9.159-6.668-4.817-4.376-10.143-9.904-10.42-16.807-.235-5.865 1.983-11.35 5.926-15.662.143-1.907-.364-4.012-.701-5.889-.472-2.622-.887-5.193-.946-7.864l.203-16.993c.886-14.568 3.28-29.127 6.325-43.385 2.178-10.204 4.652-20.464 7.746-30.428a355.925 355.925 0 0 1 17.111-44.29l4.464-8.747c1.085-1.893 2.823-4.036 3.515-6.051.114-.33.082-.566.053-.906Z"/>
	<path fill="#fff" class="exhaust" d="M210.859 342.737c-3.24-1.753-6.436-4.195-9.159-6.668-4.817-4.376-10.143-9.904-10.42-16.807-.235-5.865 1.983-11.35 5.926-15.662 2.422 12.782 10.05 24.263 20.77 31.61a75.493 75.493 0 0 0 10.79 6.15l8.853 3.738-.123-.252c-1.267-2.67-1.575-6.355-.827-9.221l.111-.437c1.21-4.705 4.682-8.897 8.87-11.293 4.696-2.688 10.727-3.174 15.9-1.69 5.039 1.445 9.61 4.887 12.137 9.515 2.317 4.245 2.442 8.566 1.097 13.153 14.53-5.525 29.935-14.029 36.665-28.878 1.782-3.93 2.608-8.08 3.695-12.229 4.133 4.55 6.171 9.275 5.828 15.504-.379 6.877-5.258 12.774-10.2 17.122-2.754 2.425-5.693 4.436-8.875 6.255-9.03 6.122-19.74 11.46-30.59 13.225-.413 2.667-1.346 5.344-2.26 7.878-3.062 8.504-7.772 15.976-13.408 23.002-5.77-7.462-10.186-15.848-13.182-24.792-.593-1.772-1.344-3.552-1.59-5.413l-.03-.264c-6.532-1.504-12.932-3.654-18.87-6.8-3.833-2.03-7.409-4.489-11.108-6.746Z"/>
</svg>